<?xml version="1.0" encoding="utf-8"?>
<!-- Generator: Adobe Illustrator 24.3.0, SVG Export Plug-In . SVG Version: 6.00 Build 0)  -->
<svg version="1.1" id="Layer_1" xmlns="http://www.w3.org/2000/svg" xmlns:xlink="http://www.w3.org/1999/xlink" x="0px" y="0px"
	 viewBox="0 0 281.04 198.09" style="enable-background:new 0 0 281.04 198.09;" xml:space="preserve">
<style type="text/css">
	.st0{fill:url(#SVGID_1_);}
	.st1{fill:#fff}
	.st2{fill:#00A7F5;}
	.st3{fill:url(#SVGID_2_);}
	.st4{fill:url(#SVGID_3_);}
	.st5{fill:url(#SVGID_4_);}
	.st6{fill:url(#SVGID_5_);}
	.st7{fill:url(#SVGID_6_);}
	.st8{fill:url(#SVGID_7_);}
	.st9{fill:url(#SVGID_8_);}
</style>
<text transform="matrix(1.0493 0 0 1 -271.834 260.166)" class="st2" style="font-family:'BellMT'; font-size:199.3725px; letter-spacing:-14.3;">CR</text>
<linearGradient id="SVGID_1_" gradientUnits="userSpaceOnUse" x1="-141.1907" y1="136.4687" x2="-22.2077" y2="136.4687">
	<stop  offset="0" style="stop-color:#E0231F"/>
	<stop  offset="1" style="stop-color:#F68B1E"/>
</linearGradient>
<rect x="-141.19" y="51.66" class="st0" width="118.98" height="169.63"/>
<g>
	<rect x="82.8" y="114.57" class="st1" width="5.2" height="7.58"/>
	<path class="st2" d="M133.06,108.12v16.18h-47.8c-5.99,0.13-34.55-8.99-36.49-40.28c-0.22-3.57,0.09-7.18,0.93-10.66
		c6.27-26.09,28.79-31.55,35.25-32.58c0.97-0.16,1.95-0.23,2.93-0.22l44.83,0.16v16.01c0,0-34.14-0.72-43.85,0
		c-8.76,0.65-18.69,7.45-22.39,20.39c-0.8,2.8-0.95,5.75-0.43,8.61c4.08,22.72,24.62,22.4,24.62,22.4H133.06z"/>
	<polygon class="st2" points="132.71,74.7 132.71,90.15 88.69,90.15 88.86,74.7 	"/>
	<rect x="167.78" y="64.43" class="st2" width="10.4" height="10.4"/>
	<rect x="179.77" y="64.43" class="st2" width="10.4" height="10.4"/>
	<rect x="179.77" y="76.02" class="st2" width="10.4" height="10.4"/>
	<path class="st2" d="M210.45,106.97l18.1,17.85l-16.3-0.05l-14.01-14.02c-0.14,0.02-0.28,0.05-0.41,0.07h-35.99v13.59h-16.79V94.43
		h45.34c1.23,0,2.46,0.03,3.69,0.12c3.77,0.3,16.54-0.04,18.93-17.68c0-0.03,0-0.05,0.01-0.07c0.3-14.85-11.16-18.69-15.94-19.65
		c-1.05-0.21-2.12-0.31-3.19-0.31h-48.44V40.05h48.07c1.61,0,3.21,0.14,4.8,0.45c8.33,1.6,31.83,8.49,31.5,35.13
		C229.81,75.64,230.97,97.18,210.45,106.97z"/>
	<rect x="167.91" y="76.02" class="st2" width="10.39" height="10.4"/>
	<linearGradient id="SVGID_2_" gradientUnits="userSpaceOnUse" x1="88.6927" y1="82.425" x2="132.7052" y2="82.425">
		<stop  offset="0" style="stop-color:#E0231F"/>
		<stop  offset="1" style="stop-color:#F68B1E"/>
	</linearGradient>
	<polygon class="st3" points="88.86,74.7 132.71,74.7 132.71,90.15 88.69,90.15 	"/>
	<linearGradient id="SVGID_3_" gradientUnits="userSpaceOnUse" x1="48.6999" y1="82.4288" x2="133.0647" y2="82.4288">
		<stop  offset="0" style="stop-color:#E0231F"/>
		<stop  offset="1" style="stop-color:#F68B1E"/>
	</linearGradient>
	<path class="st4" d="M133.06,108.12v16.18h-47.8c-5.99,0.13-34.55-8.99-36.49-40.28c-0.22-3.57,0.09-7.18,0.93-10.66
		c6.27-26.09,28.79-31.55,35.25-32.58c0.97-0.16,1.95-0.23,2.93-0.22l44.83,0.16v16.01c0,0-34.14-0.72-43.85,0
		c-8.76,0.65-18.69,7.45-22.39,20.39c-0.8,2.8-0.95,5.75-0.43,8.61c4.08,22.72,24.62,22.4,24.62,22.4H133.06z"/>
	<linearGradient id="SVGID_4_" gradientUnits="userSpaceOnUse" x1="167.7782" y1="69.6295" x2="178.176" y2="69.6295">
		<stop  offset="0" style="stop-color:#6E7791"/>
		<stop  offset="1" style="stop-color:#A7AEB6"/>
	</linearGradient>
	<rect x="167.78" y="64.43" class="st5" width="10.4" height="10.4"/>
	<linearGradient id="SVGID_5_" gradientUnits="userSpaceOnUse" x1="167.9139" y1="81.221" x2="178.3049" y2="81.221">
		<stop  offset="0" style="stop-color:#6E7791"/>
		<stop  offset="1" style="stop-color:#A7AEB6"/>
	</linearGradient>
	<rect x="167.91" y="76.02" class="st6" width="10.39" height="10.4"/>
	<linearGradient id="SVGID_6_" gradientUnits="userSpaceOnUse" x1="179.7699" y1="69.6295" x2="190.1677" y2="69.6295">
		<stop  offset="0" style="stop-color:#6E7791"/>
		<stop  offset="1" style="stop-color:#A7AEB6"/>
	</linearGradient>
	<rect x="179.77" y="64.43" class="st7" width="10.4" height="10.4"/>
	<linearGradient id="SVGID_7_" gradientUnits="userSpaceOnUse" x1="179.7699" y1="81.221" x2="190.1677" y2="81.221">
		<stop  offset="0" style="stop-color:#6E7791"/>
		<stop  offset="1" style="stop-color:#A7AEB6"/>
	</linearGradient>
	<rect x="179.77" y="76.02" class="st8" width="10.4" height="10.4"/>
	<linearGradient id="SVGID_8_" gradientUnits="userSpaceOnUse" x1="145.0496" y1="82.4351" x2="229.8174" y2="82.4351">
		<stop  offset="0" style="stop-color:#6E7791"/>
		<stop  offset="1" style="stop-color:#A7AEB6"/>
	</linearGradient>
	<path class="st9" d="M210.45,106.97l18.1,17.85l-16.3-0.05l-14.01-14.02c-0.14,0.02-0.28,0.05-0.41,0.07h-35.99v13.59h-16.79V94.43
		h45.34c1.23,0,2.46,0.03,3.69,0.12c3.77,0.3,16.54-0.04,18.93-17.68c0-0.03,0-0.05,0.01-0.07c0.3-14.85-11.16-18.69-15.94-19.65
		c-1.05-0.21-2.12-0.31-3.19-0.31h-48.44V40.05h48.07c1.61,0,3.21,0.14,4.8,0.45c8.33,1.6,31.83,8.49,31.5,35.13
		C229.81,75.64,230.97,97.18,210.45,106.97z"/>
</g>
<g>
	<g>
		<path class="st1" d="M40.9,155.52v-20.63h12.94v3.59H44.5v4.18h7.41v3.59H44.5v5.66h9.34v3.59H40.9z"/>
		<path class="st1" d="M58.9,138.89c-0.53,0-0.98-0.17-1.34-0.52s-0.54-0.79-0.54-1.32c0-0.52,0.18-0.96,0.54-1.31
			s0.81-0.53,1.33-0.53c0.52,0,0.96,0.18,1.32,0.53s0.54,0.79,0.54,1.31c0,0.53-0.18,0.97-0.53,1.32S59.42,138.89,58.9,138.89z
			 M57.08,140.79h3.59v14.73h-3.59V140.79z"/>
		<path class="st1" d="M64.22,155.52l-0.01-14.73h3.59l0.01,1.31c0.5-0.53,1.1-0.95,1.8-1.26c0.7-0.31,1.45-0.46,2.25-0.46
			c0.54,0,1.08,0.08,1.62,0.24l-1.41,3.62c-0.37-0.15-0.75-0.22-1.12-0.22c-0.58,0-1.11,0.14-1.58,0.42
			c-0.48,0.28-0.85,0.66-1.13,1.13c-0.28,0.48-0.42,1-0.42,1.58v8.37H64.22z"/>
		<path class="st1" d="M86.66,140.79h3.59v14.73h-3.59l-0.16-1.83c-0.4,0.66-0.94,1.19-1.6,1.6s-1.45,0.61-2.35,0.61
			c-1.09,0-2.11-0.21-3.06-0.62c-0.95-0.41-1.79-0.98-2.51-1.71c-0.72-0.73-1.29-1.57-1.69-2.52c-0.41-0.95-0.61-1.97-0.61-3.06
			c0-1.05,0.19-2.04,0.58-2.96c0.39-0.92,0.93-1.73,1.63-2.43c0.7-0.7,1.5-1.24,2.42-1.63c0.91-0.39,1.9-0.59,2.95-0.59
			c0.97,0,1.84,0.22,2.61,0.65c0.77,0.43,1.43,0.98,1.97,1.65L86.66,140.79z M82.46,152.44c0.77,0,1.44-0.19,2.03-0.57
			c0.59-0.38,1.05-0.9,1.38-1.55s0.5-1.37,0.5-2.16c0-0.8-0.17-1.52-0.5-2.17s-0.8-1.17-1.39-1.55s-1.27-0.57-2.03-0.57
			s-1.45,0.19-2.07,0.58s-1.12,0.91-1.49,1.55s-0.55,1.37-0.55,2.17s0.19,1.52,0.56,2.17c0.37,0.65,0.87,1.16,1.5,1.55
			C81.03,152.25,81.71,152.44,82.46,152.44z"/>
		<path class="st1" d="M100.29,155.52l-0.01-14.73h3.59l0.01,1.31c0.5-0.53,1.1-0.95,1.8-1.26c0.7-0.31,1.45-0.46,2.25-0.46
			c0.54,0,1.08,0.08,1.62,0.24l-1.41,3.62c-0.37-0.15-0.75-0.22-1.12-0.22c-0.58,0-1.11,0.14-1.58,0.42
			c-0.48,0.28-0.85,0.66-1.13,1.13c-0.28,0.48-0.42,1-0.42,1.58v8.37H100.29z"/>
		<path class="st1" d="M118.1,155.9c-1.35,0-2.59-0.35-3.71-1.05s-2-1.63-2.67-2.81s-0.99-2.48-0.99-3.9c0-1.07,0.19-2.08,0.57-3.01
			c0.38-0.94,0.91-1.76,1.58-2.48c0.67-0.71,1.46-1.27,2.35-1.67c0.89-0.4,1.85-0.6,2.86-0.6c1.15,0,2.2,0.24,3.16,0.73
			c0.96,0.49,1.77,1.15,2.44,2c0.67,0.84,1.15,1.81,1.46,2.89c0.3,1.08,0.37,2.21,0.21,3.39h-10.77c0.14,0.55,0.36,1.04,0.68,1.48
			c0.31,0.44,0.71,0.79,1.19,1.05c0.48,0.26,1.03,0.4,1.64,0.41c0.63,0.01,1.2-0.14,1.72-0.45s0.94-0.73,1.29-1.26l3.67,0.85
			c-0.6,1.31-1.49,2.38-2.68,3.2C120.9,155.49,119.57,155.9,118.1,155.9z M114.47,146.68h7.25c-0.11-0.59-0.34-1.12-0.69-1.6
			c-0.35-0.48-0.78-0.86-1.29-1.14c-0.51-0.28-1.06-0.43-1.65-0.43c-0.59,0-1.13,0.14-1.64,0.42c-0.5,0.28-0.93,0.66-1.27,1.13
			C114.84,145.54,114.6,146.08,114.47,146.68z"/>
		<path class="st1" d="M139.21,140.79h3.59v14.73h-3.59l-0.16-1.83c-0.4,0.66-0.94,1.19-1.6,1.6s-1.45,0.61-2.35,0.61
			c-1.09,0-2.11-0.21-3.06-0.62c-0.95-0.41-1.79-0.98-2.51-1.71c-0.72-0.73-1.29-1.57-1.69-2.52c-0.41-0.95-0.61-1.97-0.61-3.06
			c0-1.05,0.19-2.04,0.58-2.96c0.39-0.92,0.93-1.73,1.63-2.43c0.7-0.7,1.5-1.24,2.42-1.63c0.91-0.39,1.9-0.59,2.95-0.59
			c0.97,0,1.84,0.22,2.61,0.65c0.77,0.43,1.43,0.98,1.97,1.65L139.21,140.79z M135.01,152.44c0.77,0,1.44-0.19,2.03-0.57
			c0.59-0.38,1.05-0.9,1.38-1.55s0.5-1.37,0.5-2.16c0-0.8-0.17-1.52-0.5-2.17s-0.8-1.17-1.39-1.55s-1.27-0.57-2.03-0.57
			s-1.45,0.19-2.07,0.58s-1.12,0.91-1.49,1.55s-0.55,1.37-0.55,2.17s0.19,1.52,0.56,2.17c0.37,0.65,0.87,1.16,1.5,1.55
			C133.58,152.25,134.26,152.44,135.01,152.44z"/>
		<path class="st1" d="M145.75,155.52v-22.1h3.59v22.1H145.75z"/>
		<path class="st1" d="M166.43,155.9c-1.36,0-2.59-0.35-3.71-1.05c-1.12-0.7-2-1.63-2.67-2.81c-0.66-1.18-0.99-2.48-0.99-3.9
			c0-1.07,0.19-2.08,0.58-3.01c0.38-0.94,0.91-1.76,1.58-2.48c0.67-0.71,1.46-1.27,2.35-1.67c0.89-0.4,1.85-0.6,2.86-0.6
			c1.15,0,2.2,0.24,3.16,0.73c0.96,0.49,1.77,1.15,2.44,2c0.67,0.84,1.15,1.81,1.46,2.89c0.3,1.08,0.37,2.21,0.21,3.39h-10.77
			c0.14,0.55,0.36,1.04,0.68,1.48c0.31,0.44,0.71,0.79,1.19,1.05c0.48,0.26,1.03,0.4,1.63,0.41c0.63,0.01,1.2-0.14,1.72-0.45
			s0.95-0.73,1.29-1.26l3.67,0.85c-0.6,1.31-1.49,2.38-2.68,3.2C169.24,155.49,167.91,155.9,166.43,155.9z M162.81,146.68h7.25
			c-0.11-0.59-0.34-1.12-0.68-1.6c-0.35-0.48-0.78-0.86-1.29-1.14c-0.51-0.28-1.06-0.43-1.65-0.43c-0.59,0-1.13,0.14-1.63,0.42
			c-0.5,0.28-0.93,0.66-1.27,1.13C163.18,145.54,162.94,146.08,162.81,146.68z"/>
		<path class="st1" d="M180.78,155.78c-0.77-0.05-1.51-0.2-2.22-0.46c-0.71-0.26-1.34-0.62-1.89-1.07
			c-0.55-0.45-0.97-0.99-1.27-1.62l3.04-1.3c0.12,0.2,0.31,0.4,0.57,0.63c0.27,0.22,0.58,0.41,0.95,0.55
			c0.37,0.15,0.77,0.22,1.22,0.22c0.37,0,0.73-0.05,1.07-0.16c0.34-0.1,0.61-0.26,0.83-0.48c0.21-0.22,0.32-0.5,0.32-0.84
			c0-0.36-0.12-0.65-0.38-0.85c-0.25-0.2-0.56-0.35-0.94-0.46c-0.38-0.1-0.74-0.2-1.1-0.29c-0.93-0.19-1.8-0.48-2.6-0.87
			s-1.44-0.9-1.93-1.53c-0.49-0.62-0.73-1.38-0.73-2.26c0-0.97,0.26-1.81,0.77-2.52s1.19-1.25,2.02-1.64
			c0.83-0.38,1.73-0.57,2.69-0.57c1.17,0,2.24,0.24,3.22,0.73c0.98,0.49,1.75,1.17,2.32,2.05l-2.84,1.68
			c-0.14-0.24-0.33-0.45-0.57-0.66c-0.25-0.2-0.53-0.37-0.84-0.5c-0.31-0.13-0.64-0.21-0.99-0.23c-0.44-0.02-0.84,0.02-1.21,0.12
			c-0.36,0.1-0.66,0.26-0.88,0.5c-0.22,0.24-0.33,0.55-0.33,0.94c0,0.37,0.15,0.65,0.44,0.83c0.29,0.18,0.65,0.32,1.07,0.42
			c0.42,0.1,0.82,0.21,1.2,0.32c0.86,0.29,1.68,0.63,2.44,1.05c0.76,0.41,1.37,0.92,1.83,1.52c0.46,0.6,0.68,1.32,0.66,2.15
			c0,0.95-0.28,1.79-0.85,2.5c-0.57,0.71-1.3,1.25-2.2,1.63S181.81,155.86,180.78,155.78z"/>
		<path class="st1" d="M197.14,144.38h-2.86v11.14h-3.59v-11.14h-2.18v-3.59h2.18v-4.63h3.59v4.63h2.86V144.38z"/>
		<path class="st1" d="M210.9,140.79h3.59v14.73h-3.59l-0.16-1.83c-0.4,0.66-0.94,1.19-1.6,1.6c-0.66,0.41-1.45,0.61-2.35,0.61
			c-1.09,0-2.11-0.21-3.06-0.62c-0.95-0.41-1.79-0.98-2.51-1.71c-0.72-0.73-1.29-1.57-1.69-2.52s-0.61-1.97-0.61-3.06
			c0-1.05,0.19-2.04,0.58-2.96c0.39-0.92,0.93-1.73,1.63-2.43c0.7-0.7,1.5-1.24,2.42-1.63c0.91-0.39,1.9-0.59,2.95-0.59
			c0.97,0,1.84,0.22,2.62,0.65c0.77,0.43,1.43,0.98,1.97,1.65L210.9,140.79z M206.7,152.44c0.77,0,1.44-0.19,2.03-0.57
			c0.59-0.38,1.05-0.9,1.38-1.55s0.5-1.37,0.5-2.16c0-0.8-0.17-1.52-0.5-2.17s-0.8-1.17-1.39-1.55c-0.59-0.38-1.27-0.57-2.03-0.57
			c-0.76,0-1.45,0.19-2.07,0.58s-1.12,0.91-1.49,1.55c-0.37,0.65-0.55,1.37-0.55,2.17s0.19,1.52,0.56,2.17
			c0.37,0.65,0.87,1.16,1.5,1.55C205.27,152.25,205.95,152.44,206.7,152.44z"/>
		<path class="st1" d="M225.33,144.38h-2.86v11.14h-3.59v-11.14h-2.18v-3.59h2.18v-4.63h3.59v4.63h2.86V144.38z"/>
		<path class="st1" d="M234.47,155.9c-1.36,0-2.59-0.35-3.71-1.05c-1.12-0.7-2-1.63-2.67-2.81c-0.66-1.18-0.99-2.48-0.99-3.9
			c0-1.07,0.19-2.08,0.58-3.01c0.38-0.94,0.91-1.76,1.58-2.48c0.67-0.71,1.46-1.27,2.35-1.67c0.89-0.4,1.85-0.6,2.86-0.6
			c1.15,0,2.2,0.24,3.16,0.73c0.96,0.49,1.77,1.15,2.44,2c0.67,0.84,1.15,1.81,1.46,2.89c0.3,1.08,0.37,2.21,0.21,3.39h-10.77
			c0.14,0.55,0.36,1.04,0.68,1.48c0.31,0.44,0.71,0.79,1.19,1.05c0.48,0.26,1.03,0.4,1.63,0.41c0.63,0.01,1.2-0.14,1.72-0.45
			s0.95-0.73,1.29-1.26l3.67,0.85c-0.6,1.31-1.49,2.38-2.68,3.2C237.27,155.49,235.94,155.9,234.47,155.9z M230.84,146.68h7.25
			c-0.11-0.59-0.34-1.12-0.68-1.6c-0.35-0.48-0.78-0.86-1.29-1.14c-0.51-0.28-1.06-0.43-1.65-0.43c-0.59,0-1.13,0.14-1.63,0.42
			c-0.5,0.28-0.93,0.66-1.27,1.13C231.21,145.54,230.97,146.08,230.84,146.68z"/>
	</g>
</g>
</svg>
